<?xml version="1.0" encoding="UTF-8"?>
<svg xmlns:math="http://www.w3.org/2005/xpath-functions/math"
     xmlns="http://www.w3.org/2000/svg"
     xmlns:djb="http://www.obdurodon.org"
     width="1000%"
     height="1000%">
   <g transform="translate(630 630)">
      <line x1="-600"
            y1="0"
            x2="600"
            y2="0"
            stroke="black"
            stroke-width="2"/>
      <line x1="0"
            y1="-600"
            x2="0"
            y2="600"
            stroke="black"
            stroke-width="2"/>
      <path d="M600,0, A600 600, 0 0,1 -34.886897346285465,598.9848949627609"
            style="stroke:#660000; fill:none"/>
      <text x="605" y="5">greg</text>
      <line x1="0" y1="0" x2="600" y2="0" style="stroke:#006600;"/>
      <path d="M-34.886897346285465,598.9848949627609, A600 600, 0 0,1 -595.9430146451658,-69.65574847513807"
            style="stroke:#660000; fill:none"/>
      <text x="-29.886897346285465" y="603.9848949627609">elisa</text>
      <line x1="0"
            y1="0"
            x2="-34.886897346285465"
            y2="598.9848949627609"
            style="stroke:#006600;"/>
      <path d="M-595.9430146451658,-69.65574847513807, A600 600, 0 0,1 -172.08193962665388,-574.7937073892934"
            style="stroke:#660000; fill:none"/>
      <text x="-590.9430146451658" y="-64.65574847513807">david</text>
      <line x1="0"
            y1="0"
            x2="-595.9430146451658"
            y2="-69.65574847513807"
            style="stroke:#006600;"/>
      <path d="M-172.08193962665388,-574.7937073892934, A600 600, 0 0,1 -34.88689734628521,-598.984894962761"
            style="stroke:#660000; fill:none"/>
      <text x="-167.08193962665388" y="-569.7937073892934">meg</text>
      <line x1="0"
            y1="0"
            x2="-172.08193962665388"
            y2="-574.7937073892934"
            style="stroke:#006600;"/>
   </g>
</svg>
