<?xml version="1.0" encoding="UTF-8"?>
<svg xmlns:math="http://www.w3.org/2005/xpath-functions/math"
     xmlns="http://www.w3.org/2000/svg"
     xmlns:djb="http://www.obdurodon.org"
     width="1000%"
     height="1000%">
   <g transform="translate(630 630)">
      <line x1="-600"
            y1="0"
            x2="600"
            y2="0"
            stroke="black"
            stroke-width="2"/>
      <line x1="0"
            y1="-600"
            x2="0"
            y2="600"
            stroke="black"
            stroke-width="2"/>
      <path d="M600,0, A600 600, 0 0,1 -595.9430146451658,69.65574847513821"
            style="stroke:#660000; fill:none"/>
      <text x="605" y="5">young-man</text>
      <line x1="0" y1="0" x2="600" y2="0" style="stroke:#006600;"/>
      <path d="M-595.9430146451658,69.65574847513821, A600 600, 0 0,1 536.1795841940474,269.2795081202772"
            style="stroke:#660000; fill:none"/>
      <text x="-590.9430146451658" y="74.65574847513821">society-man</text>
      <line x1="0"
            y1="0"
            x2="-595.9430146451658"
            y2="69.65574847513821"
            style="stroke:#006600;"/>
      <path d="M536.1795841940474,269.2795081202772, A600 600, 0 0,1 104.18890660015842,590.8846518073248"
            style="stroke:#660000; fill:none"/>
      <text x="541.1795841940474" y="274.2795081202772">society-woman</text>
      <line x1="0"
            y1="0"
            x2="536.1795841940474"
            y2="269.2795081202772"
            style="stroke:#006600;"/>
      <path d="M104.18890660015842,590.8846518073248, A600 600, 0 0,1 459.62666587138665,-385.67256581192385"
            style="stroke:#660000; fill:none"/>
      <text x="109.18890660015842" y="595.8846518073248">cecilija</text>
      <line x1="0"
            y1="0"
            x2="104.18890660015842"
            y2="590.8846518073248"
            style="stroke:#006600;"/>
      <path d="M459.62666587138665,-385.67256581192385, A600 600, 0 0,1 583.8269223478939,138.36952244546586"
            style="stroke:#660000; fill:none"/>
      <text x="464.62666587138665" y="-380.67256581192385">olga</text>
      <line x1="0"
            y1="0"
            x2="459.62666587138665"
            y2="-385.67256581192385"
            style="stroke:#006600;"/>
      <path d="M583.8269223478939,138.36952244546586, A600 600, 0 0,1 237.64785962349868,550.9296641281625"
            style="stroke:#660000; fill:none"/>
      <text x="588.8269223478939" y="143.36952244546586">vera</text>
      <line x1="0"
            y1="0"
            x2="583.8269223478939"
            y2="138.36952244546586"
            style="stroke:#006600;"/>
      <path d="M237.64785962349868,550.9296641281625, A600 600, 0 0,1 -34.886897346281614,598.9848949627611"
            style="stroke:#660000; fill:none"/>
      <text x="242.64785962349868" y="555.9296641281625">young-dandy</text>
      <line x1="0"
            y1="0"
            x2="237.64785962349868"
            y2="550.9296641281625"
            style="stroke:#006600;"/>
      <path d="M-34.886897346281614,598.9848949627611, A600 600, 0 0,1 -595.943014645166,-69.65574847513597"
            style="stroke:#660000; fill:none"/>
      <text x="-29.886897346281614" y="603.9848949627611">blonde</text>
      <line x1="0"
            y1="0"
            x2="-34.886897346281614"
            y2="598.9848949627611"
            style="stroke:#006600;"/>
      <path d="M-595.943014645166,-69.65574847513597, A600 600, 0 0,1 -563.8155724715464,-205.2120859953977"
            style="stroke:#660000; fill:none"/>
      <text x="-590.943014645166" y="-64.65574847513597">young-woman</text>
      <line x1="0"
            y1="0"
            x2="-595.943014645166"
            y2="-69.65574847513597"
            style="stroke:#006600;"/>
      <path d="M-563.8155724715464,-205.2120859953977, A600 600, 0 0,1 459.6266658713834,-385.6725658119276"
            style="stroke:#660000; fill:none"/>
      <text x="-558.8155724715464" y="-200.2120859953977">servant-fem</text>
      <line x1="0"
            y1="0"
            x2="-563.8155724715464"
            y2="-205.2120859953977"
            style="stroke:#006600;"/>
      <path d="M459.6266658713834,-385.6725658119276, A600 600, 0 0,1 600,-1.469576158976824E-12"
            style="stroke:#660000; fill:none"/>
      <text x="464.6266658713834" y="-380.6725658119276">servant-man</text>
      <line x1="0"
            y1="0"
            x2="459.6266658713834"
            y2="-385.6725658119276"
            style="stroke:#006600;"/>
      <path d="M600,-1.469576158976824E-12, A600 600, 0 0,1 237.64785962348773,-550.9296641281671"
            style="stroke:#660000; fill:none"/>
      <text x="605" y="4.99999999999853">valickaja</text>
      <line x1="0"
            y1="0"
            x2="600"
            y2="-1.469576158976824E-12"
            style="stroke:#006600;"/>
      <path d="M237.64785962348773,-550.9296641281671, A600 600, 0 0,1 104.18890660016119,590.8846518073243"
            style="stroke:#660000; fill:none"/>
      <text x="242.64785962348773" y="-545.9296641281671">sergei</text>
      <line x1="0"
            y1="0"
            x2="237.64785962348773"
            y2="-550.9296641281671"
            style="stroke:#006600;"/>
      <path d="M104.18890660016119,590.8846518073243, A600 600, 0 0,1 -300.0000000000043,-519.6152422706607"
            style="stroke:#660000; fill:none"/>
      <text x="109.18890660016119" y="595.8846518073243">muse</text>
      <line x1="0"
            y1="0"
            x2="104.18890660016119"
            y2="590.8846518073243"
            style="stroke:#006600;"/>
      <path d="M-300.0000000000043,-519.6152422706607, A600 600, 0 0,1 459.626665871383,-385.67256581192817"
            style="stroke:#660000; fill:none"/>
      <text x="-295.0000000000043" y="-514.6152422706607">poet</text>
      <line x1="0"
            y1="0"
            x2="-300.0000000000043"
            y2="-519.6152422706607"
            style="stroke:#006600;"/>
      <path d="M459.626665871383,-385.67256581192817, A600 600, 0 0,1 600,2.0588921760953652E-12"
            style="stroke:#660000; fill:none"/>
      <text x="464.626665871383" y="-380.67256581192817">society-people</text>
      <line x1="0"
            y1="0"
            x2="459.626665871383"
            y2="-385.67256581192817"
            style="stroke:#006600;"/>
      <path d="M600,2.0588921760953652E-12, A600 600, 0 0,1 358.2951550216751,481.2739156530237"
            style="stroke:#660000; fill:none"/>
      <text x="605" y="5.000000000002059">prince</text>
      <line x1="0"
            y1="0"
            x2="600"
            y2="2.0588921760953652E-12"
            style="stroke:#006600;"/>
      <path d="M358.2951550216751,481.2739156530237, A600 600, 0 0,1 -563.8155724715481,-205.21208599539287"
            style="stroke:#660000; fill:none"/>
      <text x="363.2951550216751" y="486.2739156530237">viktor</text>
      <line x1="0"
            y1="0"
            x2="358.2951550216751"
            y2="481.2739156530237"
            style="stroke:#006600;"/>
      <path d="M-563.8155724715481,-205.21208599539287, A600 600, 0 0,1 -595.9430146451662,-69.6557484751348"
            style="stroke:#660000; fill:none"/>
      <text x="-558.8155724715481" y="-200.21208599539287">dmitrij</text>
      <line x1="0"
            y1="0"
            x2="-563.8155724715481"
            y2="-205.21208599539287"
            style="stroke:#006600;"/>
      <path d="M-595.9430146451662,-69.6557484751348, A600 600, 0 0,1 459.6266658713854,-385.67256581192527"
            style="stroke:#660000; fill:none"/>
      <text x="-590.9430146451662" y="-64.6557484751348">nadezhda</text>
      <line x1="0"
            y1="0"
            x2="-595.9430146451662"
            y2="-69.6557484751348"
            style="stroke:#006600;"/>
      <path d="M459.6266658713854,-385.67256581192527, A600 600, 0 0,1 536.1795841940437,-269.27950812028445"
            style="stroke:#660000; fill:none"/>
      <text x="464.6266658713854" y="-380.67256581192527">first-voice</text>
      <line x1="0"
            y1="0"
            x2="459.6266658713854"
            y2="-385.67256581192527"
            style="stroke:#006600;"/>
      <path d="M536.1795841940437,-269.27950812028445, A600 600, 0 0,1 -595.9430146451652,-69.65574847514297"
            style="stroke:#660000; fill:none"/>
      <text x="541.1795841940437" y="-264.27950812028445">anna</text>
      <line x1="0"
            y1="0"
            x2="536.1795841940437"
            y2="-269.27950812028445"
            style="stroke:#006600;"/>
      <path d="M-595.9430146451652,-69.65574847514297, A600 600, 0 0,1 358.2951550216744,-481.27391565302423"
            style="stroke:#660000; fill:none"/>
      <text x="-590.9430146451652" y="-64.65574847514297">iličev</text>
      <line x1="0"
            y1="0"
            x2="-595.9430146451652"
            y2="-69.65574847514297"
            style="stroke:#006600;"/>
      <path d="M358.2951550216744,-481.27391565302423, A600 600, 0 0,1 237.6478596234923,550.9296641281652"
            style="stroke:#660000; fill:none"/>
      <text x="363.2951550216744" y="-476.27391565302423">young-men</text>
      <line x1="0"
            y1="0"
            x2="358.2951550216744"
            y2="-481.27391565302423"
            style="stroke:#006600;"/>
      <path d="M237.6478596234923,550.9296641281652, A600 600, 0 0,1 -501.2926868477671,329.70538684247566"
            style="stroke:#660000; fill:none"/>
      <text x="242.6478596234923" y="555.9296641281652">narod</text>
      <line x1="0"
            y1="0"
            x2="237.6478596234923"
            y2="550.9296641281652"
            style="stroke:#006600;"/>
      <path d="M-501.2926868477671,329.70538684247566, A600 600, 0 0,1 -300.00000000000506,-519.6152422706602"
            style="stroke:#660000; fill:none"/>
      <text x="-496.2926868477671" y="334.70538684247566">society-women</text>
      <line x1="0"
            y1="0"
            x2="-501.2926868477671"
            y2="329.70538684247566"
            style="stroke:#006600;"/>
      <path d="M-300.00000000000506,-519.6152422706602, A600 600, 0 0,1 104.18890660016034,-590.8846518073245"
            style="stroke:#660000; fill:none"/>
      <text x="-295.00000000000506" y="-514.6152422706602">young-women</text>
      <line x1="0"
            y1="0"
            x2="-300.00000000000506"
            y2="-519.6152422706602"
            style="stroke:#006600;"/>
   </g>
</svg>
